<svg width="251" height="198" viewBox="0 0 251 198" fill="none" xmlns="http://www.w3.org/2000/svg">
<path d="M130.508 158.976C166.272 158.976 195.264 129.942 195.264 94.1254C195.264 58.3093 166.272 29.2746 130.508 29.2746C94.7442 29.2746 65.752 58.3093 65.752 94.1254C65.752 129.942 94.7442 158.976 130.508 158.976Z" fill="#3E3E3E" fill-opacity="0.15"/>
<path d="M221.878 86.5311V79.5277C221.878 78.1922 221.348 76.9115 220.405 75.9671C219.462 75.0228 218.183 74.4923 216.85 74.4923H195.241C194.58 74.4923 193.927 74.3621 193.317 74.109C192.707 73.8559 192.152 73.485 191.685 73.0175C191.218 72.5499 190.848 71.9948 190.595 71.3839C190.343 70.7729 190.213 70.1181 190.213 69.4569V62.4535C190.213 61.1181 190.742 59.8373 191.685 58.893C192.628 57.9486 193.907 57.4181 195.241 57.4181H203.524C204.858 57.4181 206.137 56.8876 207.08 55.9433C208.022 54.999 208.552 53.7182 208.552 52.3827V45.3793C208.552 44.0439 208.022 42.7631 207.08 41.8188C206.137 40.8745 204.858 40.3439 203.524 40.3439H55.2723C53.9387 40.3439 52.6598 40.8744 51.7169 41.8188C50.7739 42.7631 50.2442 44.0439 50.2442 45.3793V52.3827C50.2442 53.7182 50.7739 54.999 51.7169 55.9433C52.6598 56.8876 53.9387 57.4181 55.2723 57.4181C56.6058 57.4181 57.8847 57.9486 58.8276 58.893C59.7706 59.8373 60.3003 61.1181 60.3003 62.4535V69.4569C60.3003 70.7924 59.7706 72.0731 58.8276 73.0175C57.8847 73.9618 56.6058 74.4923 55.2723 74.4923H31.9668C30.6333 74.4923 29.3544 75.0228 28.4114 75.9671C27.4685 76.9115 26.9387 78.1922 26.9387 79.5277V86.5311C26.9387 87.8665 27.4685 89.1473 28.4114 90.0916C29.3544 91.0359 30.6333 91.5665 31.9668 91.5665H55.0424C55.7027 91.5665 56.3566 91.6967 56.9666 91.9498C57.5766 92.2028 58.1309 92.5737 58.5978 93.0413C59.0647 93.5089 59.4351 94.064 59.6878 94.6749C59.9405 95.2858 60.0705 95.9406 60.0705 96.6019V103.605C60.1937 110.014 46.2348 108.641 43.4578 108.641H43.4394C42.1059 108.641 40.827 109.171 39.884 110.116C38.9411 111.06 38.4113 112.341 38.4113 113.676V120.679C38.4113 122.015 38.9411 123.296 39.884 124.24C40.827 125.184 42.1059 125.715 43.4394 125.715H56.1278C57.4614 125.715 58.7403 126.245 59.6832 127.19C60.6262 128.134 61.1559 129.415 61.1559 130.75V137.754C61.1559 139.089 60.6262 140.37 59.6832 141.314C58.7403 142.259 57.4614 142.789 56.1278 142.789H41.8736C40.54 142.789 39.2611 143.32 38.3182 144.264C37.3753 145.208 36.8455 146.489 36.8455 147.824V154.828C36.8455 156.163 37.3753 157.444 38.3182 158.388C39.2611 159.333 40.54 159.863 41.8736 159.863H202.362C203.696 159.863 204.974 159.333 205.917 158.388C206.86 157.444 207.39 156.163 207.39 154.828V147.824C207.39 146.489 206.86 145.208 205.917 144.264C204.974 143.32 203.696 142.789 202.362 142.789H194.141C192.807 142.789 191.528 142.259 190.586 141.314C189.643 140.37 189.113 139.089 189.113 137.754V130.75C189.113 129.415 189.643 128.134 190.586 127.19C191.528 126.245 192.807 125.715 194.141 125.715H208.282C209.615 125.715 210.894 125.184 211.837 124.24C212.78 123.296 213.31 122.015 213.31 120.679V113.676C213.31 112.341 212.78 111.06 211.837 110.116C210.894 109.171 209.615 108.641 208.282 108.641H201.302C199.969 108.641 198.69 108.11 197.747 107.166C196.804 106.222 196.274 104.941 196.274 103.605V96.6019C196.274 95.9406 196.404 95.2858 196.657 94.6749C196.909 94.064 197.28 93.5089 197.747 93.0413C198.214 92.5737 198.768 92.2028 199.378 91.9498C199.988 91.6967 200.642 91.5665 201.302 91.5665H216.85C218.183 91.5665 219.462 91.0359 220.405 90.0916C221.348 89.1473 221.878 87.8665 221.878 86.5311Z" fill="#3E3E3E" fill-opacity="0.15"/>
<path d="M131.554 75.607C141.569 75.607 149.687 67.4765 149.687 57.4471C149.687 47.4176 141.569 39.2872 131.554 39.2872C121.539 39.2872 113.42 47.4176 113.42 57.4471C113.42 67.4765 121.539 75.607 131.554 75.607Z" fill="#3E3E3E"/>
<path d="M125.134 53.6656C125.134 53.6432 125.134 53.6207 125.134 53.5982C125.134 52.3306 125.508 51.0912 126.209 50.0359C126.911 48.9806 127.908 48.1565 129.076 47.6671C130.243 47.1778 131.529 47.045 132.772 47.2856C134.015 47.5261 135.159 48.1292 136.06 49.0191C136.962 49.9089 137.581 51.0458 137.839 52.2868C138.097 53.5278 137.983 54.8175 137.512 55.9939C137.04 57.1703 136.232 58.1808 135.188 58.8983C134.145 59.6159 132.913 60.0086 131.647 60.027V65.8652" stroke="#FF6900" stroke-width="4" stroke-linecap="round" stroke-linejoin="round"/>
<path d="M162.056 45.2225H174.53" stroke="#3E3E3E" stroke-width="3" stroke-miterlimit="10" stroke-linecap="round"/>
<path d="M162.056 48.8232H174.53" stroke="#3E3E3E" stroke-width="3" stroke-miterlimit="10" stroke-linecap="round"/>
<path d="M162.056 52.4236H174.53" stroke="#3E3E3E" stroke-width="3" stroke-miterlimit="10" stroke-linecap="round"/>
<path d="M46.0115 113.603H58.4854" stroke="#3E3E3E" stroke-width="3" stroke-miterlimit="10" stroke-linecap="round"/>
<path d="M46.0115 117.204H58.4854" stroke="#3E3E3E" stroke-width="3" stroke-miterlimit="10" stroke-linecap="round"/>
<path d="M46.0115 120.804H58.4854" stroke="#3E3E3E" stroke-width="3" stroke-miterlimit="10" stroke-linecap="round"/>
<path d="M185.987 139.279H198.461" stroke="#3E3E3E" stroke-width="3" stroke-miterlimit="10" stroke-linecap="round"/>
<path d="M185.987 142.88H198.461" stroke="#3E3E3E" stroke-width="3" stroke-miterlimit="10" stroke-linecap="round"/>
<path d="M185.987 146.48H198.461" stroke="#3E3E3E" stroke-width="3" stroke-miterlimit="10" stroke-linecap="round"/>
<path d="M201.023 121.547C203.967 121.547 206.354 119.156 206.354 116.207C206.354 113.259 203.967 110.868 201.023 110.868C198.078 110.868 195.691 113.259 195.691 116.207C195.691 119.156 198.078 121.547 201.023 121.547Z" fill="#3E3E3E" fill-opacity="0.74"/>
<path d="M186.953 122.83C188.48 122.83 189.717 121.59 189.717 120.061C189.717 118.532 188.48 117.293 186.953 117.293C185.426 117.293 184.188 118.532 184.188 120.061C184.188 121.59 185.426 122.83 186.953 122.83Z" fill="#3E3E3E" fill-opacity="0.74"/>
<path d="M193.973 107.097C196.154 107.097 197.922 105.327 197.922 103.142C197.922 100.958 196.154 99.1868 193.973 99.1868C191.791 99.1868 190.023 100.958 190.023 103.142C190.023 105.327 191.791 107.097 193.973 107.097Z" fill="#3E3E3E" fill-opacity="0.74"/>
<path d="M79.6995 157.047C83.203 157.047 86.0432 154.203 86.0432 150.694C86.0432 147.186 83.203 144.341 79.6995 144.341C76.1959 144.341 73.3557 147.186 73.3557 150.694C73.3557 154.203 76.1959 157.047 79.6995 157.047Z" fill="#3E3E3E" fill-opacity="0.74"/>
<path d="M67.5773 149.479C69.4022 149.479 70.8816 147.997 70.8816 146.17C70.8816 144.342 69.4022 142.86 67.5773 142.86C65.7523 142.86 64.2729 144.342 64.2729 146.17C64.2729 147.997 65.7523 149.479 67.5773 149.479Z" fill="#3E3E3E" fill-opacity="0.74"/>
<path d="M70.6126 136.83C71.6653 136.83 72.5187 135.975 72.5187 134.921C72.5187 133.867 71.6653 133.012 70.6126 133.012C69.5599 133.012 68.7065 133.867 68.7065 134.921C68.7065 135.975 69.5599 136.83 70.6126 136.83Z" fill="#3E3E3E" fill-opacity="0.74"/>
<path d="M81.1638 140.847C83.6874 140.847 85.7332 138.798 85.7332 136.271C85.7332 133.744 83.6874 131.695 81.1638 131.695C78.6403 131.695 76.5945 133.744 76.5945 136.271C76.5945 138.798 78.6403 140.847 81.1638 140.847Z" fill="#3E3E3E" fill-opacity="0.74"/>
<path d="M84.345 61.6766C87.8485 61.6766 90.6887 58.8323 90.6887 55.3236C90.6887 51.8149 87.8485 48.9706 84.345 48.9706C80.8414 48.9706 78.0012 51.8149 78.0012 55.3236C78.0012 58.8323 80.8414 61.6766 84.345 61.6766Z" fill="#3E3E3E" fill-opacity="0.74"/>
<path d="M84.6024 45.6796C86.4273 45.6796 87.9067 44.198 87.9067 42.3704C87.9067 40.5428 86.4273 39.0613 84.6024 39.0613C82.7775 39.0613 81.2981 40.5428 81.2981 42.3704C81.2981 44.198 82.7775 45.6796 84.6024 45.6796Z" fill="#3E3E3E" fill-opacity="0.74"/>
<path d="M106.611 47.1681C108.191 47.1681 109.471 45.8858 109.471 44.304C109.471 42.7223 108.191 41.44 106.611 41.44C105.032 41.44 103.751 42.7223 103.751 44.304C103.751 45.8858 105.032 47.1681 106.611 47.1681Z" fill="#3E3E3E" fill-opacity="0.74"/>
<path d="M96.2068 43.4297C97.2595 43.4297 98.1129 42.5751 98.1129 41.5208C98.1129 40.4666 97.2595 39.612 96.2068 39.612C95.1542 39.612 94.3008 40.4666 94.3008 41.5208C94.3008 42.5751 95.1542 43.4297 96.2068 43.4297Z" fill="#3E3E3E" fill-opacity="0.74"/>
<path d="M98.4217 56.5162C100.945 56.5162 102.991 54.4675 102.991 51.9402C102.991 49.4129 100.945 47.3641 98.4217 47.3641C95.8981 47.3641 93.8523 49.4129 93.8523 51.9402C93.8523 54.4675 95.8981 56.5162 98.4217 56.5162Z" fill="#3E3E3E" fill-opacity="0.74"/>
<path d="M185.685 90.1995H78.2431L74.7397 81.3048H185.685C185.823 81.3048 185.96 81.332 186.087 81.3849C186.215 81.4378 186.331 81.5154 186.428 81.6131C186.526 81.7108 186.603 81.8269 186.656 81.9546C186.709 82.0823 186.736 82.2191 186.736 82.3574V89.1469C186.736 89.2851 186.709 89.422 186.656 89.5497C186.603 89.6774 186.526 89.7934 186.428 89.8912C186.331 89.9889 186.215 90.0664 186.087 90.1193C185.96 90.1722 185.823 90.1995 185.685 90.1995Z" fill="#3E3E3E"/>
<path d="M170.032 136.933H96.9736C96.6171 136.933 96.2691 136.824 95.9761 136.621C95.6831 136.417 95.4589 136.129 95.3337 135.795L78.2432 90.1995H181.944L171.741 135.564C171.654 135.953 171.437 136.3 171.127 136.549C170.816 136.797 170.43 136.933 170.032 136.933Z" fill="#FF6900"/>
<path d="M176.69 113.567C169.216 114.047 161.742 114.299 154.268 114.469C150.531 114.576 146.794 114.6 143.057 114.663L131.846 114.727C124.371 114.734 116.897 114.649 109.423 114.473C101.949 114.303 94.4755 114.05 87.0015 113.567C94.4755 113.084 101.949 112.832 109.423 112.662C116.897 112.494 124.371 112.409 131.846 112.408L143.057 112.472C146.794 112.535 150.531 112.559 154.268 112.665C161.742 112.836 169.216 113.087 176.69 113.567Z" fill="#3E3E3E"/>
<path d="M162.07 90.1995C161.644 94.2777 160.994 98.3053 160.275 102.318C159.548 106.328 158.735 110.319 157.839 114.291C156.947 118.264 155.974 122.219 154.918 126.155C154.385 128.122 153.833 130.084 153.244 132.039C152.939 133.014 152.649 133.992 152.332 134.964L152.088 135.702C151.992 135.973 151.836 136.219 151.631 136.421C151.44 136.611 151.208 136.756 150.953 136.844C150.698 136.933 150.427 136.963 150.159 136.933C150.401 136.904 150.634 136.824 150.842 136.696C151.05 136.569 151.228 136.398 151.364 136.195C151.49 136.008 151.574 135.795 151.608 135.572L151.705 134.822C151.835 133.808 151.992 132.8 152.134 131.788C152.438 129.77 152.78 127.76 153.14 125.754C153.868 121.744 154.681 117.753 155.579 113.781C156.474 109.809 157.449 105.854 158.504 101.918C159.573 97.9848 160.709 94.0667 162.07 90.1995ZM120.32 136.933C120.041 136.963 119.759 136.928 119.496 136.83C119.233 136.732 118.996 136.574 118.805 136.369C118.617 136.153 118.466 135.907 118.358 135.641L118.012 134.923C117.551 133.965 117.116 132.998 116.667 132.036C115.787 130.104 114.943 128.159 114.117 126.208C112.471 122.302 110.907 118.366 109.423 114.4C107.935 110.435 106.526 106.44 105.196 102.416C103.877 98.388 102.624 94.3347 101.59 90.1995C103.528 93.9951 105.248 97.8727 106.901 101.775C108.547 105.681 110.11 109.617 111.592 113.585C113.077 117.55 114.485 121.545 115.817 125.569C116.477 127.583 117.119 129.604 117.726 131.638C118.02 132.658 118.328 133.673 118.61 134.698L118.821 135.467C118.869 135.709 118.956 135.94 119.079 136.154C119.214 136.369 119.396 136.55 119.611 136.685C119.825 136.82 120.068 136.905 120.32 136.933Z" fill="#3E3E3E"/>
<path d="M115.114 172.786C119.112 172.786 122.352 169.541 122.352 165.538C122.352 161.535 119.112 158.29 115.114 158.29C111.117 158.29 107.877 161.535 107.877 165.538C107.877 169.541 111.117 172.786 115.114 172.786Z" fill="#3E3E3E"/>
<path d="M115.114 168.884C116.959 168.884 118.455 167.386 118.455 165.538C118.455 163.69 116.959 162.193 115.114 162.193C113.269 162.193 111.774 163.69 111.774 165.538C111.774 167.386 113.269 168.884 115.114 168.884Z" fill="#3E3E3E" fill-opacity="0.15"/>
<path d="M156.865 172.786C160.862 172.786 164.103 169.541 164.103 165.538C164.103 161.535 160.862 158.29 156.865 158.29C152.868 158.29 149.627 161.535 149.627 165.538C149.627 169.541 152.868 172.786 156.865 172.786Z" fill="#3E3E3E"/>
<path d="M156.865 168.884C158.71 168.884 160.206 167.386 160.206 165.538C160.206 163.69 158.71 162.193 156.865 162.193C155.02 162.193 153.524 163.69 153.524 165.538C153.524 167.386 155.02 168.884 156.865 168.884Z" fill="#3E3E3E" fill-opacity="0.15"/>
<path d="M132.486 90.1995C133.197 94.0654 133.677 97.945 134.088 101.829C134.489 105.713 134.804 109.603 135.033 113.497C135.266 117.392 135.416 121.291 135.481 125.195C135.534 129.1 135.517 133.01 135.267 136.933C134.553 133.067 134.072 129.188 133.662 125.304C133.261 121.419 132.947 117.53 132.72 113.635C132.49 109.741 132.342 105.841 132.275 101.937C132.223 98.0317 132.239 94.1225 132.486 90.1995Z" fill="#3E3E3E"/>
<path d="M169.111 154.611H103.638C103.403 154.611 103.174 154.539 102.981 154.407C102.788 154.274 102.64 154.085 102.556 153.866L64.6363 54.8746H44.551C44.2438 54.8746 43.9491 54.7524 43.7319 54.5348C43.5146 54.3173 43.3926 54.0222 43.3926 53.7145C43.3926 53.4068 43.5146 53.1117 43.7319 52.8941C43.9491 52.6766 44.2438 52.5543 44.551 52.5543H65.4327C65.667 52.5543 65.8959 52.6255 66.089 52.7585C66.2821 52.8914 66.4304 53.0799 66.5143 53.2991L104.434 152.29H169.111C169.419 152.29 169.713 152.413 169.931 152.63C170.148 152.848 170.27 153.143 170.27 153.451C170.27 153.758 170.148 154.053 169.931 154.271C169.713 154.488 169.419 154.611 169.111 154.611Z" fill="#3E3E3E"/>
<path d="M54.6246 50.3693H40.8775C40.451 50.3693 40.1052 50.7156 40.1052 51.1428V56.696C40.1052 57.1232 40.451 57.4695 40.8775 57.4695H54.6246C55.0511 57.4695 55.3969 57.1232 55.3969 56.696V51.1428C55.3969 50.7156 55.0511 50.3693 54.6246 50.3693Z" fill="#3E3E3E"/>
<path d="M131.554 70.4988C132.13 70.4988 132.596 70.0313 132.596 69.4547C132.596 68.878 132.13 68.4105 131.554 68.4105C130.978 68.4105 130.511 68.878 130.511 69.4547C130.511 70.0313 130.978 70.4988 131.554 70.4988Z" fill="#FF6900"/>
</svg>
